<svg data-name="구성 요소 74 – 1"
    xmlns="http://www.w3.org/2000/svg" width="24" height="24" viewBox="0 0 24 24">
    <defs>
        <clipPath id="a7wsgo44ya">
            <path data-name="사각형 2" style="fill:none" d="M0 0h24v24H0z"/>
        </clipPath>
    </defs>
    <path data-name="사각형 1" style="fill:#121232" d="M0 0h24v24H0z"/>
    <g data-name="그룹 3">
        <g data-name="그룹 2" style="clip-path:url(#a7wsgo44ya)">
            <path data-name="패스 1" d="M4.335 12.276a.8.8 0 0 1-.8-.8V6.858A3.922 3.922 0 0 1 7.453 2.94h5.692a.8.8 0 0 1 0 1.6H7.453a2.321 2.321 0 0 0-2.318 2.318v4.618a.8.8 0 0 1-.8.8" style="fill:#9196af"/>
            <path data-name="패스 2" d="M4.335 12.276a.8.8 0 0 1-.455-.142l-2.266-1.568a.8.8 0 1 1 .91-1.315L4.335 10.5l1.812-1.249a.8.8 0 1 1 .91 1.315L4.79 12.134a.8.8 0 0 1-.455.142" style="fill:#9196af"/>
            <path data-name="패스 3" d="M16.546 21.06h-5.692a.8.8 0 1 1 0-1.6h5.692a2.321 2.321 0 0 0 2.317-2.318v-4.618a.8.8 0 1 1 1.6 0v4.618a3.921 3.921 0 0 1-3.917 3.918" style="fill:#9196af"/>
            <path data-name="패스 4" d="M21.929 14.892a.8.8 0 0 1-.454-.142l-1.812-1.25-1.81 1.252a.8.8 0 1 1-.91-1.315l2.265-1.567a.8.8 0 0 1 .91 0l2.267 1.568a.8.8 0 0 1-.456 1.458" style="fill:#9196af"/>
        </g>
    </g>
</svg>
